HIERARCHY
ROOT Hips
{
  OFFSET 0.0273292 -0.436096 0.279869
  CHANNELS 6 Xposition Yposition Zposition Zrotation Xrotation Yrotation
  JOINT LHipJoint
  {
    OFFSET 0 0 0
    CHANNELS 6 Xposition Yposition Zposition Zrotation Xrotation Yrotation
    JOINT LeftUpLeg
    {
      OFFSET 1.36306 -1.79463 0
      CHANNELS 6 Xposition Yposition Zposition Zrotation Xrotation Yrotation
      JOINT LeftLeg
      {
        OFFSET 2.44807 -6.72613 0.000295034
        CHANNELS 6 Xposition Yposition Zposition Zrotation Xrotation Yrotation
        JOINT LeftFoot
        {
          OFFSET 2.5622 -7.03959 3.59965e-05
          CHANNELS 6 Xposition Yposition Zposition Zrotation Xrotation Yrotation
          JOINT LeftToeBase
          {
            OFFSET 0.15764 -0.43311 2.32255
            CHANNELS 6 Xposition Yposition Zposition Zrotation Xrotation Yrotation
            End Site
            {
              OFFSET 0 0 0
            }
          }
        }
      }
    }
  }
  JOINT RHipJoint
  {
    OFFSET 0 0 0
    CHANNELS 6 Xposition Yposition Zposition Zrotation Xrotation Yrotation
    JOINT RightUpLeg
    {
      OFFSET -1.30552 -1.79463 0
      CHANNELS 6 Xposition Yposition Zposition Zrotation Xrotation Yrotation
      JOINT RightLeg
      {
        OFFSET -2.54234 -6.98562 -0.000396375
        CHANNELS 6 Xposition Yposition Zposition Zrotation Xrotation Yrotation
        JOINT RightFoot
        {
          OFFSET -2.56826 -7.05623 -4.47982e-05
          CHANNELS 6 Xposition Yposition Zposition Zrotation Xrotation Yrotation
          JOINT RightToeBase
          {
            OFFSET -0.16473 -0.45259 2.36315
            CHANNELS 6 Xposition Yposition Zposition Zrotation Xrotation Yrotation
            End Site
            {
              OFFSET 0 0 0
            }
          }
        }
      }
    }
  }
  JOINT LowerBack
  {
    OFFSET 0 0 0
    CHANNELS 6 Xposition Yposition Zposition Zrotation Xrotation Yrotation
    JOINT Spine
    {
      OFFSET 0.0282699 2.03559 0
      CHANNELS 6 Xposition Yposition Zposition Zrotation Xrotation Yrotation
      JOINT Spine1
      {
        OFFSET 0.05672 2.04885 -0.04275
        CHANNELS 6 Xposition Yposition Zposition Zrotation Xrotation Yrotation
        JOINT Neck
        {
          OFFSET 0 0 0
          CHANNELS 6 Xposition Yposition Zposition Zrotation Xrotation Yrotation
          JOINT Neck1
          {
            OFFSET -0.05417 1.74624 0.17202
            CHANNELS 6 Xposition Yposition Zposition Zrotation Xrotation Yrotation
            JOINT Head
            {
              OFFSET 0.10407 1.76136 -0.12397
              CHANNELS 6 Xposition Yposition Zposition Zrotation Xrotation Yrotation
              End Site
              {
                OFFSET 0 0 0
              }
            }
          }
        }
        JOINT LeftShoulder
        {
          OFFSET 0 0 0
          CHANNELS 6 Xposition Yposition Zposition Zrotation Xrotation Yrotation
          JOINT LeftArm
          {
            OFFSET 3.36241 1.20089 -0.311211
            CHANNELS 6 Xposition Yposition Zposition Zrotation Xrotation Yrotation
            JOINT LeftForeArm
            {
              OFFSET 4.983 0.000197398 0.000166057
              CHANNELS 6 Xposition Yposition Zposition Zrotation Xrotation Yrotation
              JOINT LeftHand
              {
                OFFSET 3.48356 0 1.87849e-05
                CHANNELS 6 Xposition Yposition Zposition Zrotation Xrotation Yrotation
                JOINT LeftFingerBase
                {
                  OFFSET 0 0 0
                  CHANNELS 6 Xposition Yposition Zposition Zrotation Xrotation Yrotation
                  JOINT LeftHandIndex1
                  {
                    OFFSET 0.71526 0 0
                    CHANNELS 6 Xposition Yposition Zposition Zrotation Xrotation Yrotation
                    End Site
                    {
                      OFFSET 0 0 0
                    }
                  }
                }
                JOINT LThumb
                {
                  OFFSET 0 0 0
                  CHANNELS 6 Xposition Yposition Zposition Zrotation Xrotation Yrotation
                  End Site
                  {
                    OFFSET 0 0 0
                  }
                }
              }
            }
          }
        }
        JOINT RightShoulder
        {
          OFFSET 0 0 0
          CHANNELS 6 Xposition Yposition Zposition Zrotation Xrotation Yrotation
          JOINT RightArm
          {
            OFFSET -3.1366 1.37405 -0.404651
            CHANNELS 6 Xposition Yposition Zposition Zrotation Xrotation Yrotation
            JOINT RightForeArm
            {
              OFFSET -5.2419 -5.8808e-05 -0.000165864
              CHANNELS 6 Xposition Yposition Zposition Zrotation Xrotation Yrotation
              JOINT RightHand
              {
                OFFSET -3.44417 0 -2.00002e-05
                CHANNELS 6 Xposition Yposition Zposition Zrotation Xrotation Yrotation
                JOINT RightFingerBase
                {
                  OFFSET 0 0 0
                  CHANNELS 6 Xposition Yposition Zposition Zrotation Xrotation Yrotation
                  JOINT RightHandIndex1
                  {
                    OFFSET -0.62253 0 0
                    CHANNELS 6 Xposition Yposition Zposition Zrotation Xrotation Yrotation
                    End Site
                    {
                      OFFSET 0 0 0
                    }
                  }
                }
                JOINT RThumb
                {
                  OFFSET 0 0 0
                  CHANNELS 6 Xposition Yposition Zposition Zrotation Xrotation Yrotation
                  End Site
                  {
                    OFFSET 0 0 0
                  }
                }
              }
            }
          }
        }
      }
    }
  }
}
MOTION
Frames:	7
Frame Time:	0.00833333
-0.281057 1.36127 2.2034 5.80396 1.02975 -4.84213 0 0 0 1.11816e-16 3.97569e-16 7.95139e-16 1.36306 -1.79463 0 19.0416 -46.3314 15.7157 2.44793 -6.7262 -4.54975e-05 -88.1456 61.7121 112.779 2.56228 -7.03956 1.76647e-05 10.7556 -3.25838 8.34472 0.15764 -0.43311 2.32255 9.54166e-15 0 6.36111e-15 0 0 0 1.11816e-16 3.97569e-16 7.95139e-16 -1.30552 -1.79463 0 -10.3868 -51.5024 -13.6693 -2.54196 -6.98575 -8.39989e-06 109.972 70.5033 -130.032 -2.56827 -7.05622 3.96239e-05 24.827 10.7257 -7.50802 -0.16473 -0.45259 2.36315 -0 -1.59028e-15 -0 0 0 0 1.11816e-16 3.97569e-16 7.95139e-16 0.0282704 2.03559 0 -7.84456 0.769739 10.2066 0.05672 2.04885 -0.04275 -1.65521e-32 -3.97569e-16 -2.38542e-15 0 0 0 9.93923e-17 -3.97569e-16 -2.38542e-15 -0.05417 1.74624 0.17202 -6.13046 -40.4599 -9.55273 0.10407 1.76136 -0.12397 3.97569e-16 9.54166e-15 3.97569e-16 0 0 0 9.93923e-17 -3.97569e-16 -2.38542e-15 3.36241 1.20089 -0.311211 -12.8638 -23.8415 -51.9164 4.983 -0.000204141 -0.000150919 2.56963 1.12715 -107.384 3.48356 -4.21846e-06 4.89043e-08 -4.57408 -6.5217 7.3941 0 0 0 3.18055e-15 -1.59028e-15 6.36111e-15 0.71526 -8.88178e-16 0 -1.76556e-31 -3.18055e-15 -3.18055e-15 0 0 0 3.18055e-15 -1.59028e-15 6.36111e-15 0 0 0 9.93923e-17 -3.97569e-16 -2.38542e-15 -3.1366 1.37405 -0.40465 19.1244 -28.1262 27.3409 -5.2419 -0.000161033 -8.24804e-05 -2.65843 1.11091 112.498 -3.44417 -5.22131e-06 -7.64749e-06 4.27806 -2.30802 -13.9867 0 0 0 1.76556e-31 3.18055e-15 -3.18055e-15 -0.62253 8.88178e-16 0 -3.18055e-15 -1.59028e-15 -3.18055e-15 0 0 0 1.76556e-31 3.18055e-15 -3.18055e-15 
-0.270974 1.36706 2.18632 5.68805 1.17772 -4.85685 0 0 0 -2.98177e-16 0 -0 1.36306 -1.79463 -4.44089e-16 19.0782 -45.5435 15.3456 2.44793 -6.7262 -4.54975e-05 -86.8873 61.8778 111.641 2.56228 -7.03956 1.76647e-05 11.8007 -3.59252 9.45096 0.15764 -0.43311 2.32255 3.18055e-15 0 -3.18055e-15 0 0 0 -2.98177e-16 0 -0 -1.30552 -1.79463 -4.44089e-16 -11.4267 -50.8087 -13.4307 -2.54196 -6.98575 -8.39989e-06 108.732 70.8863 -128.699 -2.56827 -7.05622 3.96239e-05 24.6112 10.562 -7.41141 -0.16473 -0.45259 2.36315 -1.76556e-31 3.18055e-15 3.18055e-15 0 0 0 -2.98177e-16 0 -0 0.0282704 2.03559 -4.44089e-16 -7.77107 0.642307 10.2059 0.05672 2.04885 -0.04275 2.48481e-16 0 -7.95139e-16 0 0 0 5.46658e-16 0 -7.95139e-16 -0.05417 1.74624 0.17202 -6.16423 -40.4752 -9.49319 0.10407 1.76136 -0.12397 -3.97569e-16 3.18055e-15 5.96354e-16 0 0 0 5.46658e-16 0 -7.95139e-16 3.36241 1.20089 -0.311211 -12.3862 -25.8698 -52.2818 4.983 -0.000204141 -0.000150919 2.54035 1.1461 -105.902 3.48356 -4.21846e-06 4.89043e-08 -4.85544 -5.5498 6.82398 0 0 0 -1.59028e-15 3.18055e-15 3.18055e-15 0.71526 0 0 -6.36111e-15 1.59028e-15 9.54166e-15 0 0 0 -1.59028e-15 3.18055e-15 3.18055e-15 0 0 0 5.46658e-16 0 -7.95139e-16 -3.1366 1.37405 -0.40465 18.5876 -29.8708 27.8888 -5.2419 -0.000161033 -8.24804e-05 -2.64718 1.12394 111.22 -3.44417 -5.22131e-06 -7.64749e-06 4.82795 -0.907717 -13.0962 0 0 0 -3.18055e-15 3.18055e-15 -3.18055e-15 -0.62253 8.88178e-16 0 -3.18055e-15 1.59028e-15 -3.18055e-15 0 0 0 -3.18055e-15 3.18055e-15 -3.18055e-15 
-0.260348 1.37295 2.16932 5.57251 1.32515 -4.8709 0 0 0 4.72114e-16 -3.97569e-16 -7.95139e-16 1.36306 -1.79463 4.44089e-16 19.1282 -44.7468 14.9873 2.44793 -6.7262 -4.54975e-05 -85.6087 62.0338 110.482 2.56228 -7.03956 1.76647e-05 12.8519 -3.92624 10.5601 0.15764 -0.43311 2.32255 -6.36111e-15 -3.18055e-15 -0 0 0 0 4.72114e-16 -3.97569e-16 -7.95139e-16 -1.30552 -1.79463 0 -12.4696 -50.1106 -13.1882 -2.54196 -6.98575 -8.39989e-06 107.445 71.2648 -127.318 -2.56827 -7.05622 3.96239e-05 24.3973 10.3873 -7.31019 -0.16473 -0.45259 2.36315 -3.18055e-15 -4.77083e-15 -0 0 0 0 4.72114e-16 -3.97569e-16 -7.95139e-16 0.0282704 2.03559 0 -7.6975 0.514388 10.2057 0.05672 2.04885 -0.04275 -8.44835e-16 3.97569e-16 1.59028e-15 0 0 0 1.98785e-16 7.95139e-16 1.59028e-15 -0.05417 1.74624 0.17202 -6.18574 -40.4696 -9.42331 0.10407 1.76136 -0.12397 0 0 -3.97569e-16 0 0 0 1.98785e-16 7.95139e-16 1.59028e-15 3.36241 1.20089 -0.311211 -11.9302 -27.868 -52.6647 4.983 -0.000204141 -0.000150919 2.50601 1.12337 -104.417 3.48356 -4.21846e-06 4.89043e-08 -5.143 -4.56115 6.24453 0 0 0 -7.06225e-31 6.36111e-15 6.36111e-15 0.71526 -8.88178e-16 -1.77636e-15 -4.77083e-15 -3.18055e-15 3.18055e-15 0 0 0 -7.06225e-31 6.36111e-15 6.36111e-15 0 0 0 1.98785e-16 7.95139e-16 1.59028e-15 -3.1366 1.37405 -0.40465 18.0421 -31.6195 28.432 -5.2419 -0.000161033 -8.24804e-05 -2.62616 1.13363 109.939 -3.44417 -5.22131e-06 -7.64749e-06 5.36146 0.486628 -12.2027 0 0 0 3.18055e-15 -1.59028e-15 9.54166e-15 -0.62253 0 0 -6.36111e-15 -1.59028e-15 -0 0 0 0 3.18055e-15 -1.59028e-15 9.54166e-15 
-0.24902 1.37871 2.15164 5.45561 1.4715 -4.88601 0 0 0 -7.45443e-17 -1.98785e-16 -7.95139e-16 1.36306 -1.79463 -4.44089e-16 19.1899 -43.9338 14.6345 2.44793 -6.7262 -4.54975e-05 -84.3032 62.1794 109.301 2.56228 -7.03956 1.76647e-05 13.9159 -4.23756 11.7218 0.15764 -0.43311 2.32255 -1.76556e-31 3.18055e-15 3.18055e-15 0 0 0 -7.45443e-17 -1.98785e-16 -7.95139e-16 -1.30552 -1.79463 -4.44089e-16 -13.5434 -49.3936 -12.939 -2.54196 -6.98575 -8.39989e-06 106.09 71.6449 -125.881 -2.56827 -7.05622 3.96239e-05 24.1884 10.2204 -7.21448 -0.16473 -0.45259 2.36315 -3.18055e-15 -2.38542e-15 3.18055e-15 0 0 0 -7.45443e-17 -1.98785e-16 -7.95139e-16 0.0282704 2.03559 0 -7.6267 0.382618 10.2061 0.05672 2.04885 -0.04275 -4.47266e-16 -7.95139e-16 -7.95139e-16 0 0 0 -2.20695e-32 -7.95139e-16 -1.59028e-15 -0.05417 1.74624 0.17202 -6.19033 -40.4381 -9.34268 0.10407 1.76136 -0.12397 -0 -3.18055e-15 -0 0 0 0 -2.20695e-32 -7.95139e-16 -1.59028e-15 3.36241 1.20089 -0.311211 -11.473 -29.8303 -52.9831 4.983 -0.000204141 -0.000150919 2.46917 1.07327 -102.908 3.48356 -4.21846e-06 4.89043e-08 -5.42357 -3.54048 5.68489 0 0 0 3.18055e-15 0 -6.36111e-15 0.71526 8.88178e-16 -1.77636e-15 3.18055e-15 0 -0 0 0 0 3.18055e-15 0 -6.36111e-15 0 0 0 -2.20695e-32 -7.95139e-16 -1.59028e-15 -3.1366 1.37405 -0.40465 17.5318 -33.3341 28.983 -5.2419 -0.000161033 -8.24804e-05 -2.59907 1.13803 108.629 -3.44417 -5.22131e-06 -7.64749e-06 5.87557 1.89891 -11.3286 0 0 0 3.18055e-15 -1.59028e-15 -3.18055e-15 -0.62253 0 0 2.64834e-31 -4.77083e-15 3.18055e-15 0 0 0 3.18055e-15 -1.59028e-15 -3.18055e-15 
-0.237634 1.38429 2.13359 5.3379 1.6128 -4.90176 0 0 0 2.23633e-16 3.97569e-16 -0 1.36306 -1.79463 0 19.2695 -43.0999 14.3203 2.44793 -6.7262 -4.54975e-05 -82.935 62.3302 108.049 2.56228 -7.03956 1.76647e-05 14.9477 -4.52161 12.8744 0.15764 -0.43311 2.32255 -0 0 3.18055e-15 0 0 0 2.23633e-16 3.97569e-16 -0 -1.30552 -1.79463 -4.44089e-16 -14.6128 -48.6625 -12.703 -2.54196 -6.98575 -8.39989e-06 104.603 72.0369 -124.311 -2.56827 -7.05622 3.96239e-05 23.9905 10.0953 -7.14322 -0.16473 -0.45259 2.36315 6.36111e-15 1.59028e-15 -0 0 0 0 2.23633e-16 3.97569e-16 -0 0.0282704 2.03559 -4.44089e-16 -7.55618 0.248362 10.2074 0.05672 2.04885 -0.04275 -9.93923e-17 -7.95139e-16 7.95139e-16 0 0 0 -4.47266e-16 0 1.59028e-15 -0.05417 1.74624 0.17202 -6.17773 -40.3743 -9.25041 0.10407 1.76136 -0.12397 -5.96354e-16 6.36111e-15 1.98785e-16 0 0 0 -4.47266e-16 0 1.59028e-15 3.36241 1.20089 -0.311211 -11.008 -31.7383 -53.2668 4.983 -0.000204141 -0.000150919 2.43977 1.08255 -101.374 3.48356 -4.21846e-06 4.89043e-08 -5.68025 -2.5285 5.17374 0 0 0 -8.82781e-31 3.18055e-15 1.59028e-14 0.71526 0 0 -9.54166e-15 3.18055e-15 9.54166e-15 0 0 0 -8.82781e-31 3.18055e-15 1.59028e-14 0 0 0 -4.47266e-16 0 1.59028e-15 -3.1366 1.37405 -0.40465 17.0386 -34.9972 29.5261 -5.2419 -0.000161033 -8.24804e-05 -2.57085 1.15006 107.277 -3.44417 -5.22131e-06 -7.64749e-06 6.38068 3.34751 -10.5023 0 0 0 -3.53113e-31 3.18055e-15 6.36111e-15 -0.62253 0 0 0 3.18055e-15 -0 0 0 0 -3.53113e-31 3.18055e-15 6.36111e-15 
-0.226833 1.38965 2.11551 5.21991 1.74505 -4.91772 0 0 0 1.49089e-16 1.98785e-16 -7.95139e-16 1.36306 -1.79463 0 19.3709 -42.2411 14.0764 2.44793 -6.7262 -4.54975e-05 -81.4646 62.4991 106.67 2.56228 -7.03956 1.76647e-05 15.9007 -4.77433 13.9561 0.15764 -0.43311 2.32255 -6.36111e-15 0 -1.59028e-15 0 0 0 1.49089e-16 1.98785e-16 -7.95139e-16 -1.30552 -1.79463 0 -15.6412 -47.9223 -12.4988 -2.54196 -6.98575 -8.39989e-06 102.909 72.4479 -122.522 -2.56827 -7.05622 3.96239e-05 23.8089 10.046 -7.11527 -0.16473 -0.45259 2.36315 -3.18055e-15 3.97569e-15 -0 0 0 0 1.49089e-16 1.98785e-16 -7.95139e-16 0.0282704 2.03559 0 -7.48347 0.112986 10.2102 0.05672 2.04885 -0.04275 1.49089e-16 0 -0 0 0 0 5.46658e-16 -3.97569e-16 -7.95139e-16 -0.05417 1.74624 0.17202 -6.14773 -40.2719 -9.14571 0.10407 1.76136 -0.12397 9.93923e-17 6.36111e-15 7.95139e-16 0 0 0 5.46658e-16 -3.97569e-16 -7.95139e-16 3.36241 1.20089 -0.311211 -10.5329 -33.5689 -53.5446 4.983 -0.000204141 -0.000150919 2.41892 1.19285 -99.8093 3.48356 -4.21846e-06 4.89043e-08 -5.89959 -1.56622 4.73933 0 0 0 -3.18055e-15 3.18055e-15 -6.36111e-15 0.71526 0 -1.77636e-15 -3.53113e-31 6.36111e-15 3.18055e-15 0 0 0 -3.18055e-15 3.18055e-15 -6.36111e-15 0 0 0 5.46658e-16 -3.97569e-16 -7.95139e-16 -3.1366 1.37405 -0.40465 16.5416 -36.5919 30.043 -5.2419 -0.000161033 -8.24804e-05 -2.54497 1.17753 105.874 -3.44417 -5.22131e-06 -7.64749e-06 6.88913 4.8506 -9.75259 0 0 0 0 3.18055e-15 -0 -0.62253 0 -1.77636e-15 3.18055e-15 3.18055e-15 -3.18055e-15 0 0 0 0 3.18055e-15 -0 
-0.216334 1.39503 2.09778 5.1032 1.8821 -4.93319 0 0 0 1.16786e-15 0 1.59028e-15 1.36306 -1.79463 -4.44089e-16 19.4914 -41.3699 13.8857 2.44793 -6.7262 -4.54975e-05 -79.9272 62.6762 105.21 2.56228 -7.03956 1.76647e-05 16.8673 -5.02318 14.9898 0.15764 -0.43311 2.32255 -3.18055e-15 0 4.77083e-15 0 0 0 1.16786e-15 0 1.59028e-15 -1.30552 -1.79463 0 -16.6568 -47.1769 -12.3319 -2.54196 -6.98575 -8.39989e-06 101.034 72.8594 -120.543 -2.56827 -7.05622 3.96239e-05 23.6397 10.0468 -7.11626 -0.16473 -0.45259 2.36315 -7.06225e-31 6.36111e-15 6.36111e-15 0 0 0 1.16786e-15 0 1.59028e-15 0.0282704 2.03559 -4.44089e-16 -7.4096 -0.0229552 10.214 0.05672 2.04885 -0.04275 6.4605e-16 -1.19271e-15 -7.95139e-16 0 0 0 5.46658e-16 -7.95139e-16 -7.95139e-16 -0.05417 1.74624 0.17202 -6.10825 -40.1414 -9.02981 0.10407 1.76136 -0.12397 9.93923e-17 -6.36111e-15 -0 0 0 0 5.46658e-16 -7.95139e-16 -7.95139e-16 3.36241 1.20089 -0.311211 -10.0389 -35.3588 -53.7973 4.983 -0.000204141 -0.000150919 2.38746 1.15804 -97.9359 3.48356 -4.21846e-06 4.89043e-08 -6.10058 -0.628173 4.36205 0 0 0 6.36111e-15 0 -6.36111e-15 0.71526 1.77636e-15 0 3.18055e-15 -3.18055e-15 -0 0 0 0 6.36111e-15 0 -6.36111e-15 0 0 0 5.46658e-16 -7.95139e-16 -7.95139e-16 -3.1366 1.37405 -0.40465 16.0195 -38.1529 30.5261 -5.2419 -0.000161033 -8.24804e-05 -2.51863 1.15653 104.438 -3.44417 -5.22131e-06 -7.64749e-06 7.41585 6.36868 -8.9935 0 0 0 -3.18055e-15 -3.18055e-15 3.18055e-15 -0.62253 1.77636e-15 0 3.18055e-15 0 -3.18055e-15 0 0 0 -3.18055e-15 -3.18055e-15 3.18055e-15 
